<mxfile host="app.diagrams.net" modified="2023-05-21T01:46:18.953Z" agent="Mozilla/5.0 (Windows NT 10.0; Win64; x64; rv:109.0) Gecko/20100101 Firefox/113.0" version="21.3.2" etag="YwO0hrjitwOmGPq6WqxE" type="github">
  <diagram name="第 1 页" id="tiqrSjwyBYhPH3HMhL-3">
    <mxGraphModel>
      <root>
        <mxCell id="0" />
        <mxCell id="1" parent="0" />
      </root>
    </mxGraphModel>
  </diagram>
</mxfile>
